<?xml version="1.0" encoding="UTF-8" standalone="no"?>
<!-- Created with Inkscape (http://www.inkscape.org/) -->

<svg
   xmlns:dc="http://purl.org/dc/elements/1.1/"
   xmlns:cc="http://creativecommons.org/ns#"
   xmlns:rdf="http://www.w3.org/1999/02/22-rdf-syntax-ns#"
   xmlns:svg="http://www.w3.org/2000/svg"
   xmlns="http://www.w3.org/2000/svg"
   xmlns:sodipodi="http://sodipodi.sourceforge.net/DTD/sodipodi-0.dtd"
   xmlns:inkscape="http://www.inkscape.org/namespaces/inkscape"
   version="1.1"
   id="svg8879"
   xml:space="preserve"
   width="360.97031"
   height="109.00249"
   viewBox="0 0 360.97031 109.00249"
   sodipodi:docname="logo.svg"
   inkscape:version="0.92+devel unknown"><metadata
     id="metadata8885"><rdf:RDF><cc:Work
         rdf:about=""><dc:format>image/svg+xml</dc:format><dc:type
           rdf:resource="http://purl.org/dc/dcmitype/StillImage" /><dc:title></dc:title></cc:Work></rdf:RDF></metadata><defs
     id="defs8883"><clipPath
       clipPathUnits="userSpaceOnUse"
       id="clipPath8897"><path
         d="M 0,0 H 612 V 792 H 0 Z"
         id="path8895"
         inkscape:connector-curvature="0" /></clipPath><clipPath
       clipPathUnits="userSpaceOnUse"
       id="clipPath8909"><path
         d="M 373.202,196.38 H 537.305 V 367.27 H 373.202 Z"
         id="path8907"
         inkscape:connector-curvature="0" /></clipPath><clipPath
       clipPathUnits="userSpaceOnUse"
       id="clipPath8925"><path
         d="M 373.408,516.91 H 537.305 V 687.799 H 373.408 Z"
         id="path8923"
         inkscape:connector-curvature="0" /></clipPath><clipPath
       clipPathUnits="userSpaceOnUse"
       id="clipPath8941"><path
         d="M 0,0 H 612 V 792 H 0 Z"
         id="path8939"
         inkscape:connector-curvature="0" /></clipPath><clipPath
       clipPathUnits="userSpaceOnUse"
       id="clipPath8953"><path
         d="M 0,0 H 612 V 792 H 0 Z"
         id="path8951"
         inkscape:connector-curvature="0" /></clipPath><clipPath
       clipPathUnits="userSpaceOnUse"
       id="clipPath8969"><path
         d="M 451.408,196.561 H 612 V 49.74 H 451.408 Z"
         id="path8967"
         inkscape:connector-curvature="0" /></clipPath><clipPath
       clipPathUnits="userSpaceOnUse"
       id="clipPath8981"><path
         d="M 0,0 H 612 V 792 H 0 Z"
         id="path8979"
         inkscape:connector-curvature="0" /></clipPath><clipPath
       clipPathUnits="userSpaceOnUse"
       id="clipPath8993"><path
         d="M 451.408,517.091 H 612 V 367.089 H 451.408 Z"
         id="path8991"
         inkscape:connector-curvature="0" /></clipPath><clipPath
       clipPathUnits="userSpaceOnUse"
       id="clipPath9005"><path
         d="M 0,0 H 612 V 792 H 0 Z"
         id="path9003"
         inkscape:connector-curvature="0" /></clipPath><clipPath
       clipPathUnits="userSpaceOnUse"
       id="clipPath9019"><path
         d="M 0,0 H 612 V 792 H 0 Z"
         id="path9017"
         inkscape:connector-curvature="0" /></clipPath><clipPath
       clipPathUnits="userSpaceOnUse"
       id="clipPath9047"><path
         d="M 0,0 H 612 V 792 H 0 Z"
         id="path9045"
         inkscape:connector-curvature="0" /></clipPath><clipPath
       clipPathUnits="userSpaceOnUse"
       id="clipPath9067"><path
         d="M 0,0 H 612 V 792 H 0 Z"
         id="path9065"
         inkscape:connector-curvature="0" /></clipPath><clipPath
       clipPathUnits="userSpaceOnUse"
       id="clipPath9123"><path
         d="M 0,0 H 612 V 792 H 0 Z"
         id="path9121"
         inkscape:connector-curvature="0" /></clipPath><clipPath
       clipPathUnits="userSpaceOnUse"
       id="clipPath9151"><path
         d="M 0,0 H 612 V 792 H 0 Z"
         id="path9149"
         inkscape:connector-curvature="0" /></clipPath><clipPath
       clipPathUnits="userSpaceOnUse"
       id="clipPath9199"><path
         d="M 0,0 H 612 V 792 H 0 Z"
         id="path9197"
         inkscape:connector-curvature="0" /></clipPath><clipPath
       clipPathUnits="userSpaceOnUse"
       id="clipPath9231"><path
         d="M 0,0 H 612 V 792 H 0 Z"
         id="path9229"
         inkscape:connector-curvature="0" /></clipPath><clipPath
       clipPathUnits="userSpaceOnUse"
       id="clipPath9273"><path
         d="M 0,0 H 612 V 792 H 0 Z"
         id="path9271"
         inkscape:connector-curvature="0" /></clipPath><clipPath
       clipPathUnits="userSpaceOnUse"
       id="clipPath9367"><path
         d="M 0,0 H 612 V 792 H 0 Z"
         id="path9365"
         inkscape:connector-curvature="0" /></clipPath><clipPath
       clipPathUnits="userSpaceOnUse"
       id="clipPath9409"><path
         d="M 0,0 H 612 V 792 H 0 Z"
         id="path9407"
         inkscape:connector-curvature="0" /></clipPath><clipPath
       clipPathUnits="userSpaceOnUse"
       id="clipPath9439"><path
         d="M 0,792 H 612 V 0 H 0 Z"
         id="path9437"
         inkscape:connector-curvature="0" /></clipPath><clipPath
       clipPathUnits="userSpaceOnUse"
       id="clipPath9447"><path
         d="m -16.92,56.24 h 644.4 V -10 h -644.4 z"
         id="path9445"
         inkscape:connector-curvature="0" /></clipPath></defs><sodipodi:namedview
     pagecolor="#ffffff"
     bordercolor="#666666"
     inkscape:document-rotation="0"
     borderopacity="1"
     objecttolerance="10"
     gridtolerance="10"
     guidetolerance="10"
     inkscape:pageopacity="0"
     inkscape:pageshadow="2"
     inkscape:window-width="1920"
     inkscape:window-height="1061"
     id="namedview8881"
     showgrid="false"
     fit-margin-top="0"
     fit-margin-left="0"
     fit-margin-right="0"
     fit-margin-bottom="0"
     inkscape:zoom="1"
     inkscape:cx="139.94988"
     inkscape:cy="-1.3165612"
     inkscape:window-x="0"
     inkscape:window-y="0"
     inkscape:window-maximized="0"
     inkscape:current-layer="g8887" /><g
     id="g8887"
     inkscape:groupmode="layer"
     inkscape:label="example"
     transform="matrix(1.3333333,0,0,-1.3333333,-64.103999,990.55997)"><g
       id="g10149"
       transform="matrix(2.2194254,0,0,2.2194254,-58.627534,-905.93552)"><path
         inkscape:connector-curvature="0"
         id="path9109"
         style="fill:#ffffff;fill-opacity:1;fill-rule:nonzero;stroke:none"
         d="M 170.059,717.339 H 48.078 v 25.581 h 121.981 z" /><g
         transform="translate(51.0438,712.9135)"
         id="g9111"><path
           inkscape:connector-curvature="0"
           id="path9113"
           style="fill:#003c7e;fill-opacity:1;fill-rule:nonzero;stroke:none"
           d="M 0,0 H 0.626 L 2.809,-5.099 H 2.002 l -0.511,1.26 h -2.427 l -0.505,-1.26 H -2.247 Z M 1.239,-3.234 0.288,-0.893 H 0.274 l -0.966,-2.341 z" /></g><path
         inkscape:connector-curvature="0"
         id="path9115"
         style="fill:#003c7e;fill-opacity:1;fill-rule:nonzero;stroke:none"
         d="m 54.53,707.814 h 0.649 v 5.445 H 54.53 Z" /><g
         id="g9117"><g
           clip-path="url(#clipPath9123)"
           id="g9119"><g
             transform="translate(56.3383,713.2595)"
             id="g9125"><path
               inkscape:connector-curvature="0"
               id="path9127"
               style="fill:#003c7e;fill-opacity:1;fill-rule:nonzero;stroke:none"
               d="m 0,0 h 0.648 v -2.521 h 0.015 c 0.23,0.353 0.698,0.576 1.188,0.576 1.052,0 1.736,-0.77 1.736,-1.793 0,-1.008 -0.677,-1.793 -1.736,-1.793 -0.461,0 -0.936,0.208 -1.188,0.576 H 0.648 v -0.49 H 0 Z m 2.895,-3.738 c 0,0.691 -0.432,1.188 -1.123,1.188 -0.692,0 -1.124,-0.497 -1.124,-1.188 0,-0.692 0.432,-1.188 1.124,-1.188 0.691,0 1.123,0.496 1.123,1.188" /></g><g
             transform="translate(61.3589,709.2834)"
             id="g9129"><path
               inkscape:connector-curvature="0"
               id="path9131"
               style="fill:#003c7e;fill-opacity:1;fill-rule:nonzero;stroke:none"
               d="m 0,0 c 0,-0.598 0.555,-0.994 1.152,-0.994 0.396,0 0.685,0.202 0.937,0.512 l 0.489,-0.375 c -0.36,-0.468 -0.857,-0.698 -1.512,-0.698 -1.081,0 -1.757,0.778 -1.757,1.793 0,1.023 0.741,1.793 1.764,1.793 1.203,0 1.664,-0.922 1.664,-1.8 V 0 Z M 2.046,0.519 C 2.031,1.088 1.714,1.513 1.058,1.513 0.418,1.513 0,0.973 0,0.519 Z" /></g><g
             transform="translate(65.004,711.2285)"
             id="g9133"><path
               inkscape:connector-curvature="0"
               id="path9135"
               style="fill:#003c7e;fill-opacity:1;fill-rule:nonzero;stroke:none"
               d="m 0,0 h 0.648 v -0.526 h 0.014 c 0.166,0.36 0.598,0.612 1.023,0.612 0.101,0 0.202,-0.014 0.288,-0.043 L 1.944,-0.656 c -0.107,0.029 -0.215,0.051 -0.316,0.051 -0.634,0 -0.98,-0.346 -0.98,-1.095 V -3.414 H 0 Z" /></g><g
             transform="translate(69.6281,710.6659)"
             id="g9137"><path
               inkscape:connector-curvature="0"
               id="path9139"
               style="fill:#003c7e;fill-opacity:1;fill-rule:nonzero;stroke:none"
               d="m 0,0 h -0.929 v -1.548 c 0,-0.382 0,-0.785 0.49,-0.785 0.151,0 0.331,0.022 0.461,0.1 v -0.59 c -0.152,-0.086 -0.454,-0.115 -0.584,-0.115 -1.001,0 -1.016,0.612 -1.016,1.159 V 0 h -0.748 v 0.563 h 0.748 V 1.52 h 0.649 V 0.563 H 0 Z" /></g></g></g><g
         transform="translate(72.8914,712.9135)"
         id="g9141"><path
           inkscape:connector-curvature="0"
           id="path9143"
           style="fill:#003c7e;fill-opacity:1;fill-rule:nonzero;stroke:none"
           d="m 0,0 h 3.291 v -0.648 h -2.6 v -1.52 h 2.42 v -0.648 h -2.42 v -1.635 h 2.73 V -5.099 H 0 Z" /></g><g
         id="g9145"><g
           clip-path="url(#clipPath9151)"
           id="g9147"><g
             transform="translate(77.6311,712.9281)"
             id="g9153"><path
               inkscape:connector-curvature="0"
               id="path9155"
               style="fill:#003c7e;fill-opacity:1;fill-rule:nonzero;stroke:none"
               d="m 0,0 c 0.259,0 0.476,-0.217 0.476,-0.475 0,-0.26 -0.217,-0.476 -0.476,-0.476 -0.259,0 -0.475,0.216 -0.475,0.476 C -0.475,-0.217 -0.259,0 0,0 m -0.324,-1.7 h 0.648 v -3.414 h -0.648 z" /></g><g
             transform="translate(79.1153,711.2285)"
             id="g9157"><path
               inkscape:connector-curvature="0"
               id="path9159"
               style="fill:#003c7e;fill-opacity:1;fill-rule:nonzero;stroke:none"
               d="m 0,0 h 0.648 v -0.526 h 0.014 c 0.166,0.36 0.598,0.612 1.124,0.612 0.663,0 1.239,-0.396 1.239,-1.304 V -3.414 H 2.377 v 2.016 c 0,0.641 -0.368,0.879 -0.778,0.879 -0.54,0 -0.951,-0.346 -0.951,-1.138 V -3.414 H 0 Z" /></g><g
             transform="translate(85.0645,710.3713)"
             id="g9161"><path
               inkscape:connector-curvature="0"
               id="path9163"
               style="fill:#003c7e;fill-opacity:1;fill-rule:nonzero;stroke:none"
               d="m 0,0 c -0.151,0.187 -0.374,0.338 -0.698,0.338 -0.303,0 -0.569,-0.137 -0.569,-0.381 0,-0.411 0.583,-0.469 0.871,-0.533 0.562,-0.137 0.994,-0.353 0.994,-0.994 0,-0.771 -0.706,-1.073 -1.383,-1.073 -0.561,0 -0.98,0.144 -1.318,0.605 l 0.49,0.403 c 0.209,-0.209 0.454,-0.403 0.828,-0.403 0.332,0 0.692,0.136 0.692,0.431 0,0.389 -0.541,0.462 -0.822,0.527 -0.554,0.136 -1.044,0.316 -1.044,0.971 0,0.714 0.656,1.052 1.297,1.052 0.453,0 0.922,-0.159 1.166,-0.562 z" /></g><g
             transform="translate(88.4071,710.6659)"
             id="g9165"><path
               inkscape:connector-curvature="0"
               id="path9167"
               style="fill:#003c7e;fill-opacity:1;fill-rule:nonzero;stroke:none"
               d="m 0,0 h -0.929 v -1.548 c 0,-0.382 0,-0.785 0.49,-0.785 0.151,0 0.331,0.022 0.461,0.1 v -0.59 c -0.152,-0.086 -0.454,-0.115 -0.584,-0.115 -1.001,0 -1.015,0.612 -1.015,1.159 V 0 h -0.75 v 0.563 h 0.75 V 1.52 h 0.648 V 0.563 H 0 Z" /></g><g
             transform="translate(89.8622,709.2834)"
             id="g9169"><path
               inkscape:connector-curvature="0"
               id="path9171"
               style="fill:#003c7e;fill-opacity:1;fill-rule:nonzero;stroke:none"
               d="m 0,0 c 0,-0.598 0.555,-0.994 1.152,-0.994 0.396,0 0.684,0.202 0.937,0.512 L 2.578,-0.857 C 2.219,-1.325 1.722,-1.555 1.066,-1.555 c -1.081,0 -1.758,0.778 -1.758,1.793 0,1.023 0.742,1.793 1.765,1.793 1.203,0 1.664,-0.922 1.664,-1.8 V 0 Z M 2.046,0.519 C 2.031,1.088 1.714,1.513 1.059,1.513 0.417,1.513 0,0.973 0,0.519 Z" /></g><g
             transform="translate(93.8815,712.9281)"
             id="g9173"><path
               inkscape:connector-curvature="0"
               id="path9175"
               style="fill:#003c7e;fill-opacity:1;fill-rule:nonzero;stroke:none"
               d="m 0,0 c 0.259,0 0.475,-0.217 0.475,-0.475 0,-0.26 -0.216,-0.476 -0.475,-0.476 -0.259,0 -0.475,0.216 -0.475,0.476 C -0.475,-0.217 -0.259,0 0,0 m -0.324,-1.7 h 0.648 v -3.414 h -0.648 z" /></g><g
             transform="translate(95.3658,711.2285)"
             id="g9177"><path
               inkscape:connector-curvature="0"
               id="path9179"
               style="fill:#003c7e;fill-opacity:1;fill-rule:nonzero;stroke:none"
               d="m 0,0 h 0.648 v -0.526 h 0.014 c 0.166,0.36 0.598,0.612 1.124,0.612 0.663,0 1.239,-0.396 1.239,-1.304 V -3.414 H 2.377 v 2.016 c 0,0.641 -0.367,0.879 -0.778,0.879 -0.541,0 -0.951,-0.346 -0.951,-1.138 V -3.414 H 0 Z" /></g><g
             transform="translate(105.3493,711.8114)"
             id="g9181"><path
               inkscape:connector-curvature="0"
               id="path9183"
               style="fill:#003c7e;fill-opacity:1;fill-rule:nonzero;stroke:none"
               d="m 0,0 c -0.288,0.375 -0.763,0.584 -1.232,0.584 -1.145,0 -1.901,-0.915 -1.901,-2.075 0,-1.073 0.713,-1.987 1.901,-1.987 0.584,0 1.03,0.259 1.333,0.684 l 0.583,-0.44 c -0.151,-0.208 -0.763,-0.893 -1.93,-0.893 -1.62,0 -2.622,1.354 -2.622,2.636 0,1.585 1.087,2.723 2.658,2.723 0.669,0 1.375,-0.253 1.786,-0.793 z" /></g><g
             transform="translate(108.4833,711.3144)"
             id="g9185"><path
               inkscape:connector-curvature="0"
               id="path9187"
               style="fill:#003c7e;fill-opacity:1;fill-rule:nonzero;stroke:none"
               d="m 0,0 c 1.015,0 1.815,-0.799 1.815,-1.793 0,-0.994 -0.8,-1.793 -1.815,-1.793 -1.016,0 -1.815,0.799 -1.815,1.793 C -1.815,-0.799 -1.016,0 0,0 m 0,-2.981 c 0.691,0 1.123,0.496 1.123,1.188 0,0.691 -0.432,1.188 -1.123,1.188 -0.692,0 -1.124,-0.497 -1.124,-1.188 0,-0.692 0.432,-1.188 1.124,-1.188" /></g></g></g><path
         inkscape:connector-curvature="0"
         id="path9189"
         style="fill:#003c7e;fill-opacity:1;fill-rule:nonzero;stroke:none"
         d="m 111.292,707.814 h 0.649 v 5.445 h -0.649 z" /><path
         inkscape:connector-curvature="0"
         id="path9191"
         style="fill:#003c7e;fill-opacity:1;fill-rule:nonzero;stroke:none"
         d="m 113.151,707.814 h 0.648 v 5.445 h -0.648 z" /><g
         id="g9193"><g
           clip-path="url(#clipPath9199)"
           id="g9195"><g
             transform="translate(115.4485,709.2834)"
             id="g9201"><path
               inkscape:connector-curvature="0"
               id="path9203"
               style="fill:#003c7e;fill-opacity:1;fill-rule:nonzero;stroke:none"
               d="m 0,0 c 0,-0.598 0.555,-0.994 1.152,-0.994 0.396,0 0.684,0.202 0.936,0.512 l 0.49,-0.375 c -0.36,-0.468 -0.857,-0.698 -1.512,-0.698 -1.081,0 -1.758,0.778 -1.758,1.793 0,1.023 0.742,1.793 1.765,1.793 1.203,0 1.664,-0.922 1.664,-1.8 V 0 Z M 2.045,0.519 C 2.031,1.088 1.714,1.513 1.058,1.513 0.417,1.513 0,0.973 0,0.519 Z" /></g><g
             transform="translate(122.5146,707.8433)"
             id="g9205"><path
               inkscape:connector-curvature="0"
               id="path9207"
               style="fill:#003c7e;fill-opacity:1;fill-rule:nonzero;stroke:none"
               d="m 0,0 c 0,-1.03 -0.749,-1.758 -1.866,-1.758 -0.648,0 -1.188,0.166 -1.67,0.613 l 0.439,0.547 c 0.338,-0.36 0.72,-0.555 1.217,-0.555 0.965,0 1.232,0.605 1.232,1.182 V 0.532 H -0.67 c -0.245,-0.41 -0.713,-0.605 -1.181,-0.605 -1.001,0 -1.743,0.757 -1.736,1.751 0,1.009 0.677,1.793 1.736,1.793 0.461,0 0.936,-0.209 1.188,-0.576 h 0.015 v 0.49 H 0 Z m -2.895,1.678 c 0,-0.692 0.432,-1.146 1.123,-1.146 0.691,0 1.124,0.454 1.124,1.146 0,0.691 -0.433,1.188 -1.124,1.188 -0.691,0 -1.123,-0.497 -1.123,-1.188" /></g><g
             transform="translate(124.1143,709.2834)"
             id="g9209"><path
               inkscape:connector-curvature="0"
               id="path9211"
               style="fill:#003c7e;fill-opacity:1;fill-rule:nonzero;stroke:none"
               d="m 0,0 c 0,-0.598 0.554,-0.994 1.152,-0.994 0.396,0 0.684,0.202 0.936,0.512 l 0.49,-0.375 c -0.36,-0.468 -0.857,-0.698 -1.512,-0.698 -1.081,0 -1.758,0.778 -1.758,1.793 0,1.023 0.742,1.793 1.765,1.793 1.203,0 1.664,-0.922 1.664,-1.8 V 0 Z M 2.045,0.519 C 2.031,1.088 1.714,1.513 1.058,1.513 0.418,1.513 0,0.973 0,0.519 Z" /></g><g
             transform="translate(131.541,711.3144)"
             id="g9213"><path
               inkscape:connector-curvature="0"
               id="path9215"
               style="fill:#003c7e;fill-opacity:1;fill-rule:nonzero;stroke:none"
               d="m 0,0 c 1.015,0 1.815,-0.799 1.815,-1.793 0,-0.994 -0.8,-1.793 -1.815,-1.793 -1.016,0 -1.816,0.799 -1.816,1.793 C -1.816,-0.799 -1.016,0 0,0 m 0,-2.981 c 0.691,0 1.123,0.496 1.123,1.188 0,0.691 -0.432,1.188 -1.123,1.188 -0.692,0 -1.124,-0.497 -1.124,-1.188 0,-0.692 0.432,-1.188 1.124,-1.188" /></g><g
             transform="translate(134.5521,710.6659)"
             id="g9217"><path
               inkscape:connector-curvature="0"
               id="path9219"
               style="fill:#003c7e;fill-opacity:1;fill-rule:nonzero;stroke:none"
               d="M 0,0 H -0.735 V 0.563 H 0 V 1.326 C 0,2.233 0.317,2.68 1.167,2.68 1.311,2.68 1.469,2.672 1.649,2.63 L 1.577,2.053 C 1.454,2.104 1.34,2.118 1.21,2.118 0.735,2.118 0.655,1.823 0.655,1.347 V 0.563 H 1.426 V 0 H 0.648 V -2.852 H 0 Z" /></g></g></g><g
         transform="translate(139.076,712.9135)"
         id="g9221"><path
           inkscape:connector-curvature="0"
           id="path9223"
           style="fill:#003c7e;fill-opacity:1;fill-rule:nonzero;stroke:none"
           d="M 0,0 H 1.03 L 2.651,-3.86 H 2.679 L 4.285,0 h 1.03 V -5.099 H 4.624 v 4.192 H 4.609 L 2.888,-5.099 H 2.427 L 0.706,-0.907 H 0.692 V -5.099 H 0 Z" /></g><g
         id="g9225"><g
           clip-path="url(#clipPath9231)"
           id="g9227"><g
             transform="translate(146.1066,709.2834)"
             id="g9233"><path
               inkscape:connector-curvature="0"
               id="path9235"
               style="fill:#003c7e;fill-opacity:1;fill-rule:nonzero;stroke:none"
               d="m 0,0 c 0,-0.598 0.555,-0.994 1.152,-0.994 0.396,0 0.685,0.202 0.936,0.512 l 0.49,-0.375 c -0.36,-0.468 -0.857,-0.698 -1.512,-0.698 -1.08,0 -1.758,0.778 -1.758,1.793 0,1.023 0.742,1.793 1.765,1.793 1.203,0 1.664,-0.922 1.664,-1.8 V 0 Z M 2.045,0.519 C 2.031,1.088 1.714,1.513 1.058,1.513 0.417,1.513 0,0.973 0,0.519 Z" /></g><g
             transform="translate(153.1725,707.8141)"
             id="g9237"><path
               inkscape:connector-curvature="0"
               id="path9239"
               style="fill:#003c7e;fill-opacity:1;fill-rule:nonzero;stroke:none"
               d="m 0,0 h -0.648 v 0.49 h -0.015 c -0.252,-0.367 -0.727,-0.576 -1.188,-0.576 -1.059,0 -1.736,0.785 -1.736,1.793 0,1.023 0.684,1.793 1.736,1.793 0.49,0 0.958,-0.223 1.188,-0.576 h 0.015 V 5.445 H 0 Z m -0.648,1.707 c 0,0.692 -0.432,1.188 -1.124,1.188 -0.691,0 -1.123,-0.496 -1.123,-1.188 0,-0.691 0.432,-1.188 1.123,-1.188 0.692,0 1.124,0.497 1.124,1.188" /></g><g
             transform="translate(154.6562,712.9281)"
             id="g9241"><path
               inkscape:connector-curvature="0"
               id="path9243"
               style="fill:#003c7e;fill-opacity:1;fill-rule:nonzero;stroke:none"
               d="m 0,0 c 0.26,0 0.476,-0.217 0.476,-0.475 0,-0.26 -0.216,-0.476 -0.476,-0.476 -0.259,0 -0.475,0.216 -0.475,0.476 C -0.475,-0.217 -0.259,0 0,0 m -0.324,-1.7 h 0.648 v -3.414 h -0.648 z" /></g><g
             transform="translate(158.5815,710.3208)"
             id="g9245"><path
               inkscape:connector-curvature="0"
               id="path9247"
               style="fill:#003c7e;fill-opacity:1;fill-rule:nonzero;stroke:none"
               d="m 0,0 c -0.238,0.252 -0.489,0.382 -0.849,0.382 -0.706,0 -1.067,-0.569 -1.067,-1.21 0,-0.641 0.433,-1.16 1.102,-1.16 0.361,0 0.613,0.13 0.829,0.382 l 0.46,-0.461 c -0.338,-0.375 -0.799,-0.526 -1.296,-0.526 -1.051,0 -1.786,0.727 -1.786,1.779 0,1.052 0.72,1.801 1.786,1.801 0.497,0 0.973,-0.174 1.311,-0.54 z" /></g><g
             transform="translate(160.1166,712.9281)"
             id="g9249"><path
               inkscape:connector-curvature="0"
               id="path9251"
               style="fill:#003c7e;fill-opacity:1;fill-rule:nonzero;stroke:none"
               d="m 0,0 c 0.26,0 0.475,-0.217 0.475,-0.475 0,-0.26 -0.215,-0.476 -0.475,-0.476 -0.259,0 -0.475,0.216 -0.475,0.476 C -0.475,-0.217 -0.259,0 0,0 m -0.324,-1.7 h 0.648 v -3.414 h -0.648 z" /></g><g
             transform="translate(161.6006,711.2285)"
             id="g9253"><path
               inkscape:connector-curvature="0"
               id="path9255"
               style="fill:#003c7e;fill-opacity:1;fill-rule:nonzero;stroke:none"
               d="m 0,0 h 0.649 v -0.526 h 0.014 c 0.166,0.36 0.597,0.612 1.123,0.612 0.663,0 1.239,-0.396 1.239,-1.304 V -3.414 H 2.377 v 2.016 c 0,0.641 -0.367,0.879 -0.778,0.879 -0.54,0 -0.95,-0.346 -0.95,-1.138 V -3.414 H 0 Z" /></g><g
             transform="translate(166.2255,709.2834)"
             id="g9257"><path
               inkscape:connector-curvature="0"
               id="path9259"
               style="fill:#003c7e;fill-opacity:1;fill-rule:nonzero;stroke:none"
               d="m 0,0 c 0,-0.598 0.555,-0.994 1.152,-0.994 0.396,0 0.684,0.202 0.936,0.512 l 0.49,-0.375 c -0.36,-0.468 -0.857,-0.698 -1.512,-0.698 -1.081,0 -1.758,0.778 -1.758,1.793 0,1.023 0.742,1.793 1.765,1.793 1.202,0 1.664,-0.922 1.664,-1.8 V 0 Z M 2.045,0.519 C 2.031,1.088 1.713,1.513 1.058,1.513 0.417,1.513 0,0.973 0,0.519 Z" /></g></g></g><path
         inkscape:connector-curvature="0"
         id="path9261"
         style="fill:#94c5e3;fill-opacity:1;fill-rule:nonzero;stroke:none"
         d="M 66.363,718.275 H 49.024 v 23.711 h 17.339 z" /><g
         transform="translate(169.1299,741.9661)"
         id="g9263"><path
           inkscape:connector-curvature="0"
           id="path9265"
           style="fill:#003c7e;fill-opacity:1;fill-rule:nonzero;stroke:none"
           d="m 0,0 h -101.859 l 0.009,-23.696 H 0 Z" /></g><g
         id="g9267"><g
           clip-path="url(#clipPath9273)"
           id="g9269"><g
             transform="translate(52.7526,733.5649)"
             id="g9275"><path
               inkscape:connector-curvature="0"
               id="path9277"
               style="fill:#003c7e;fill-opacity:1;fill-rule:nonzero;stroke:none"
               d="M 0,0 4.116,0.004 3.92,0.43 h -4.206 c 0,0 0.139,-0.279 0.286,-0.43" /></g><g
             transform="translate(52.7526,733.5649)"
             id="g9279"><path
               inkscape:connector-curvature="0"
               id="path9281"
               style="fill:none;stroke:#003c7e;stroke-width:0.185;stroke-linecap:butt;stroke-linejoin:miter;stroke-miterlimit:4;stroke-dasharray:none;stroke-opacity:1"
               d="M 0,0 4.116,0.004 3.92,0.43 h -4.206 c 0,0 0.139,-0.279 0.286,-0.43 z" /></g><g
             transform="translate(53.7131,732.2629)"
             id="g9283"><path
               inkscape:connector-curvature="0"
               id="path9285"
               style="fill:#003c7e;fill-opacity:1;fill-rule:nonzero;stroke:none"
               d="M 0,0 4.167,-0.001 4.659,-0.433 0.665,-0.435 c 0,0 -0.46,0.23 -0.665,0.435" /></g><g
             transform="translate(53.7131,732.2629)"
             id="g9287"><path
               inkscape:connector-curvature="0"
               id="path9289"
               style="fill:none;stroke:#003c7e;stroke-width:0.17299999;stroke-linecap:butt;stroke-linejoin:miter;stroke-miterlimit:4;stroke-dasharray:none;stroke-opacity:1"
               d="M 0,0 4.167,-0.001 4.659,-0.433 0.665,-0.435 c 0,0 -0.46,0.23 -0.665,0.435 z" /></g><g
             transform="translate(53.1763,736.9484)"
             id="g9291"><path
               inkscape:connector-curvature="0"
               id="path9293"
               style="fill:#003c7e;fill-opacity:1;fill-rule:nonzero;stroke:none"
               d="M 0,0 C 0.112,0.183 0.232,0.313 0.356,0.432 L 3.856,0.435 3.644,0.002 Z" /></g><g
             transform="translate(53.1763,736.9484)"
             id="g9295"><path
               inkscape:connector-curvature="0"
               id="path9297"
               style="fill:none;stroke:#003c7e;stroke-width:0.185;stroke-linecap:butt;stroke-linejoin:miter;stroke-miterlimit:4;stroke-dasharray:none;stroke-opacity:1"
               d="M 0,0 C 0.112,0.183 0.232,0.313 0.356,0.432 L 3.856,0.435 3.644,0.002 Z" /></g><g
             transform="translate(57.5508,738.6284)"
             id="g9299"><path
               inkscape:connector-curvature="0"
               id="path9301"
               style="fill:#003c7e;fill-opacity:1;fill-rule:nonzero;stroke:none"
               d="M 0,0 0.208,0.427 -2.051,0.43 C -2.296,0.285 -2.491,0.147 -2.701,0 Z" /></g><g
             transform="translate(57.5508,738.6284)"
             id="g9303"><path
               inkscape:connector-curvature="0"
               id="path9305"
               style="fill:none;stroke:#003c7e;stroke-width:0.185;stroke-linecap:butt;stroke-linejoin:miter;stroke-miterlimit:4;stroke-dasharray:none;stroke-opacity:1"
               d="M 0,0 0.208,0.427 -2.051,0.43 C -2.296,0.285 -2.491,0.147 -2.701,0 Z" /></g><g
             transform="translate(51.939,720.7235)"
             id="g9307"><path
               inkscape:connector-curvature="0"
               id="path9309"
               style="fill:#003c7e;fill-opacity:1;fill-rule:nonzero;stroke:none"
               d="M 0,0 4.371,0.001 4.29,0.431 h -4.506 c 0,0 0.112,-0.284 0.216,-0.431" /></g><g
             transform="translate(51.939,720.7235)"
             id="g9311"><path
               inkscape:connector-curvature="0"
               id="path9313"
               style="fill:none;stroke:#003c7e;stroke-width:0.18000001;stroke-linecap:butt;stroke-linejoin:miter;stroke-miterlimit:4;stroke-dasharray:none;stroke-opacity:1"
               d="M 0,0 4.371,0.001 4.29,0.431 h -4.506 c 0,0 0.112,-0.284 0.216,-0.431 z" /></g><g
             transform="translate(52.602,719.629)"
             id="g9315"><path
               inkscape:connector-curvature="0"
               id="path9317"
               style="fill:#003c7e;fill-opacity:1;fill-rule:nonzero;stroke:none"
               d="m 0,0 4.124,0.003 0.399,-0.43 H 0.617 c 0,0 -0.403,0.222 -0.617,0.427" /></g><g
             transform="translate(52.602,719.629)"
             id="g9319"><path
               inkscape:connector-curvature="0"
               id="path9321"
               style="fill:none;stroke:#003c7e;stroke-width:0.18000001;stroke-linecap:butt;stroke-linejoin:miter;stroke-miterlimit:4;stroke-dasharray:none;stroke-opacity:1"
               d="m 0,0 4.124,0.003 0.399,-0.43 H 0.617 c 0,0 -0.403,0.222 -0.617,0.427 z" /></g><g
             transform="translate(52.4271,722.4347)"
             id="g9323"><path
               inkscape:connector-curvature="0"
               id="path9325"
               style="fill:#003c7e;fill-opacity:1;fill-rule:nonzero;stroke:none"
               d="m 0,0 h 3.947 l 0.16,0.433 H 0.618 C 0.618,0.433 0.225,0.191 0,0" /></g><g
             transform="translate(52.4271,722.4347)"
             id="g9327"><path
               inkscape:connector-curvature="0"
               id="path9329"
               style="fill:none;stroke:#003c7e;stroke-width:0.17299999;stroke-linecap:butt;stroke-linejoin:miter;stroke-miterlimit:4;stroke-dasharray:none;stroke-opacity:1"
               d="m 0,0 h 3.947 l 0.16,0.433 H 0.618 C 0.618,0.433 0.225,0.191 0,0 Z" /></g><g
             transform="translate(54.7972,724.0356)"
             id="g9331"><path
               inkscape:connector-curvature="0"
               id="path9333"
               style="fill:#003c7e;fill-opacity:1;fill-rule:nonzero;stroke:none"
               d="M 0,0 2.244,-0.005 2.502,0.427 H 0.865 C 0.865,0.427 0.272,0.155 0,0" /></g><g
             transform="translate(54.7972,724.0356)"
             id="g9335"><path
               inkscape:connector-curvature="0"
               id="path9337"
               style="fill:none;stroke:#003c7e;stroke-width:0.17299999;stroke-linecap:butt;stroke-linejoin:miter;stroke-miterlimit:4;stroke-dasharray:none;stroke-opacity:1"
               d="M 0,0 2.244,-0.005 2.502,0.427 H 0.865 C 0.865,0.427 0.272,0.155 0,0 Z" /></g><g
             transform="translate(65.1993,718.2758)"
             id="g9339"><path
               inkscape:connector-curvature="0"
               id="path9341"
               style="fill:#003c7e;fill-opacity:1;fill-rule:nonzero;stroke:none"
               d="m 0,0 h -7.648 c 0,0 -3.864,2.344 0.164,7.201 l 2.369,0.853 c 0,0 -6.688,-5.108 5.115,-8.054" /></g></g></g><g
         transform="translate(73.9357,735.7205)"
         id="g9343"><path
           inkscape:connector-curvature="0"
           id="path9345"
           style="fill:#ffffff;fill-opacity:1;fill-rule:nonzero;stroke:none"
           d="M 0,0 H 8.785 V -1.288 H 1.388 V -4.572 H 5.863 V -5.861 H 1.388 v -4.052 h 7.853 v -1.289 H 0 Z" /></g><g
         transform="translate(73.9357,735.7205)"
         id="g9347"><path
           inkscape:connector-curvature="0"
           id="path9349"
           style="fill:none;stroke:#ffffff;stroke-width:0.43000001;stroke-linecap:butt;stroke-linejoin:miter;stroke-miterlimit:4;stroke-dasharray:none;stroke-opacity:1"
           d="M 0,0 H 8.785 V -1.288 H 1.388 V -4.572 H 5.863 V -5.861 H 1.388 v -4.052 h 7.853 v -1.289 H 0 Z" /></g><path
         inkscape:connector-curvature="0"
         id="path9351"
         style="fill:#ffffff;fill-opacity:1;fill-rule:nonzero;stroke:#ffffff;stroke-width:0.43000001;stroke-linecap:butt;stroke-linejoin:miter;stroke-miterlimit:4;stroke-dasharray:none;stroke-opacity:1"
         d="m 87.161,735.784 h 1.268 v -11.308 h -1.268 z" /><g
         transform="translate(93.6997,735.7205)"
         id="g9353"><path
           inkscape:connector-curvature="0"
           id="path9355"
           style="fill:#ffffff;fill-opacity:1;fill-rule:nonzero;stroke:none"
           d="M 0,0 H 0.725 L 7.979,-8.376 V 0 H 9.367 V -11.202 H 8.663 l -7.274,8.376 v -8.376 H 0 Z" /></g><g
         transform="translate(93.6997,735.7205)"
         id="g9357"><path
           inkscape:connector-curvature="0"
           id="path9359"
           style="fill:none;stroke:#ffffff;stroke-width:0.43000001;stroke-linecap:butt;stroke-linejoin:miter;stroke-miterlimit:4;stroke-dasharray:none;stroke-opacity:1"
           d="M 0,0 H 0.725 L 7.979,-8.376 V 0 H 9.367 V -11.202 H 8.663 l -7.274,8.376 v -8.376 H 0 Z" /></g><g
         id="g9361"><g
           clip-path="url(#clipPath9367)"
           id="g9363"><g
             transform="translate(108.0784,727.4053)"
             id="g9369"><path
               inkscape:connector-curvature="0"
               id="path9371"
               style="fill:#ffffff;fill-opacity:1;fill-rule:nonzero;stroke:none"
               d="m 0,0 c 1.595,-1.248 3.356,-1.893 4.993,-1.893 2.134,0 3.48,1.019 3.48,2.351 0,1.018 -0.87,1.85 -2.61,1.996 C 3.957,2.6 2.445,2.62 1.264,3.161 0.228,3.66 -0.331,4.471 -0.331,5.469 c 0,1.727 1.678,3.099 4.329,3.099 1.885,0 3.729,-0.644 5.345,-1.83 L 8.535,5.574 C 7.147,6.697 5.614,7.258 4.019,7.258 c -1.761,0 -2.9,-0.79 -2.9,-1.726 0,-0.416 0.187,-0.728 0.538,-0.998 C 2.61,3.806 4.206,3.972 6.256,3.744 8.597,3.473 9.944,2.122 9.944,0.416 c 0,-1.934 -1.782,-3.598 -4.93,-3.598 -2.196,0 -4.082,0.624 -5.822,1.976 z" /></g><g
             transform="translate(108.0784,727.4053)"
             id="g9373"><path
               inkscape:connector-curvature="0"
               id="path9375"
               style="fill:none;stroke:#ffffff;stroke-width:0.43000001;stroke-linecap:butt;stroke-linejoin:miter;stroke-miterlimit:4;stroke-dasharray:none;stroke-opacity:1"
               d="m 0,0 c 1.595,-1.248 3.356,-1.893 4.993,-1.893 2.134,0 3.48,1.019 3.48,2.351 0,1.018 -0.87,1.85 -2.61,1.996 C 3.957,2.6 2.445,2.62 1.264,3.161 0.228,3.66 -0.331,4.471 -0.331,5.469 c 0,1.727 1.678,3.099 4.329,3.099 1.885,0 3.729,-0.644 5.345,-1.83 L 8.535,5.574 C 7.147,6.697 5.614,7.258 4.019,7.258 c -1.761,0 -2.9,-0.79 -2.9,-1.726 0,-0.416 0.187,-0.728 0.538,-0.998 C 2.61,3.806 4.206,3.972 6.256,3.744 8.597,3.473 9.944,2.122 9.944,0.416 c 0,-1.934 -1.782,-3.598 -4.93,-3.598 -2.196,0 -4.082,0.624 -5.822,1.976 z" /></g></g></g><g
         transform="translate(124.5077,734.4323)"
         id="g9377"><path
           inkscape:connector-curvature="0"
           id="path9379"
           style="fill:#ffffff;fill-opacity:1;fill-rule:nonzero;stroke:none"
           d="M 0,0 H -4.715 V 1.288 H 6.107 V 0 H 1.391 V -9.914 H 0 Z" /></g><g
         transform="translate(124.5077,734.4323)"
         id="g9381"><path
           inkscape:connector-curvature="0"
           id="path9383"
           style="fill:none;stroke:#ffffff;stroke-width:0.43000001;stroke-linecap:butt;stroke-linejoin:miter;stroke-miterlimit:4;stroke-dasharray:none;stroke-opacity:1"
           d="M 0,0 H -4.715 V 1.288 H 6.107 V 0 H 1.391 V -9.914 H 0 Z" /></g><g
         transform="translate(133.0807,735.7205)"
         id="g9385"><path
           inkscape:connector-curvature="0"
           id="path9387"
           style="fill:#ffffff;fill-opacity:1;fill-rule:nonzero;stroke:none"
           d="M 0,0 H 8.785 V -1.288 H 1.388 V -4.572 H 5.864 V -5.861 H 1.388 v -4.052 h 7.853 v -1.289 H 0 Z" /></g><g
         transform="translate(133.0807,735.7205)"
         id="g9389"><path
           inkscape:connector-curvature="0"
           id="path9391"
           style="fill:none;stroke:#ffffff;stroke-width:0.43000001;stroke-linecap:butt;stroke-linejoin:miter;stroke-miterlimit:4;stroke-dasharray:none;stroke-opacity:1"
           d="M 0,0 H 8.785 V -1.288 H 1.388 V -4.572 H 5.864 V -5.861 H 1.388 v -4.052 h 7.853 v -1.289 H 0 Z" /></g><path
         inkscape:connector-curvature="0"
         id="path9393"
         style="fill:#ffffff;fill-opacity:1;fill-rule:nonzero;stroke:#ffffff;stroke-width:0.43000001;stroke-linecap:butt;stroke-linejoin:miter;stroke-miterlimit:4;stroke-dasharray:none;stroke-opacity:1"
         d="m 146.306,735.784 h 1.268 v -11.308 h -1.268 z" /><g
         transform="translate(152.8449,735.7205)"
         id="g9395"><path
           inkscape:connector-curvature="0"
           id="path9397"
           style="fill:#ffffff;fill-opacity:1;fill-rule:nonzero;stroke:none"
           d="M 0,0 H 0.725 L 7.979,-8.376 V 0 H 9.367 V -11.202 H 8.663 l -7.275,8.376 v -8.376 H 0 Z" /></g><g
         transform="translate(152.8449,735.7205)"
         id="g9399"><path
           inkscape:connector-curvature="0"
           id="path9401"
           style="fill:none;stroke:#ffffff;stroke-width:0.43000001;stroke-linecap:butt;stroke-linejoin:miter;stroke-miterlimit:4;stroke-dasharray:none;stroke-opacity:1"
           d="M 0,0 H 0.725 L 7.979,-8.376 V 0 H 9.367 V -11.202 H 8.663 l -7.275,8.376 v -8.376 H 0 Z" /></g><g
         id="g9403"><g
           clip-path="url(#clipPath9409)"
           id="g9405"><g
             transform="translate(56.504,735.2637)"
             id="g9411"><path
               inkscape:connector-curvature="0"
               id="path9413"
               style="fill:#003c7e;fill-opacity:1;fill-rule:nonzero;stroke:none"
               d="m 0,0 -4.146,-0.003 c 0.038,0.11 0.078,0.283 0.159,0.432 l 4.031,0.002 z" /></g><g
             transform="translate(56.504,735.2637)"
             id="g9415"><path
               inkscape:connector-curvature="0"
               id="path9417"
               style="fill:none;stroke:#003c7e;stroke-width:0.185;stroke-linecap:butt;stroke-linejoin:miter;stroke-miterlimit:4;stroke-dasharray:none;stroke-opacity:1"
               d="m 0,0 -4.146,-0.003 c 0.038,0.11 0.078,0.283 0.159,0.432 l 4.031,0.002 z" /></g><g
             transform="translate(60.754,730.3108)"
             id="g9419"><path
               inkscape:connector-curvature="0"
               id="path9421"
               style="fill:#003c7e;fill-opacity:1;fill-rule:nonzero;stroke:none"
               d="m 0,0 c -8.927,2.612 -2.014,10.378 -2.014,10.378 0.551,0.231 3.066,0.88 3.066,0.88 -9.343,-7.682 2.817,-9.65 2.817,-9.65 z" /></g><g
             transform="translate(61.6012,741.9836)"
             id="g9423"><path
               inkscape:connector-curvature="0"
               id="path9425"
               style="fill:#ffffff;fill-opacity:1;fill-rule:nonzero;stroke:none"
               d="m 0,0 c -9.323,-2.112 -9.728,-6.627 -9.728,-6.627 -0.588,4.263 1.936,6.069 3.035,6.631 z" /></g><g
             transform="translate(64.6262,731.9341)"
             id="g9427"><path
               inkscape:connector-curvature="0"
               id="path9429"
               style="fill:#ffffff;fill-opacity:1;fill-rule:nonzero;stroke:none"
               d="m 0,0 v -3.89 c -10.631,-2.449 -13.356,-5.944 -13.356,-5.944 0,0 -1.967,5.912 13.356,9.834" /></g></g></g></g></g></svg>