<svg xmlns="http://www.w3.org/2000/svg" xmlns:xlink="http://www.w3.org/1999/xlink" viewBox="0 0 99 31.58">
<title>Cedars Sinai Medical Center logo</title>
<g style="fill:#76777A">
 <path d="M52.925,2.9088l-2.128,1.304a3.7148,3.7148,0,0,0-3.211-1.712,3.84,3.84,0,0,0-3.92,4.062,3.9243,3.9243,0,0,0,7.157,2.36l2.023,1.454a6.5281,6.5281,0,0,1-11.761-3.814A6.2394,6.2394,0,0,1,47.604.1238a6.031,6.031,0,0,1,5.321,2.785"/>
 <path d="M62.3273,8.4617a6.5488,6.5488,0,0,1-.044.78H56.19a2.0742,2.0742,0,0,0,2.209,1.783,3.4773,3.4773,0,0,0,2.173-.825l1.356,1.49a5.22,5.22,0,0,1-3.663,1.304,4.2506,4.2506,0,0,1-4.461-4.497,4.2371,4.2371,0,0,1,4.346-4.55c2.474,0,4.169,1.836,4.177,4.515m-6.128-.799h3.805a1.912,1.912,0,0,0-3.805,0"/>
 <path d="M70.1554,5.0728V0h2.306v12.772h-2.262v-.95a3.1483,3.1483,0,0,1-2.571,1.172,4.2588,4.2588,0,0,1-4.161-4.524,4.258,4.258,0,0,1,4.161-4.523,3.1207,3.1207,0,0,1,2.527,1.126M65.8364,8.47a2.2223,2.2223,0,1,0,4.435,0,2.2223,2.2223,0,1,0-4.435,0"/>
 <path d="M82.9079,12.7718h-2.261v-.949a3.1562,3.1562,0,0,1-2.572,1.17,4.2572,4.2572,0,0,1-4.16-4.523,4.2572,4.2572,0,0,1,4.16-4.523,3.149,3.149,0,0,1,2.572,1.179v-.949h2.261ZM76.2829,8.47a2.2223,2.2223,0,1,0,4.435,0,2.2223,2.2223,0,1,0-4.435,0"/>
 <path d="M90.7614,4.1329l-.346,2.297a3.7527,3.7527,0,0,0-1.401-.275,1.7188,1.7188,0,0,0-1.809,1.934v4.683h-2.316V4.1769h2.244v.94a2.7129,2.7129,0,0,1,2.422-1.17,3.5273,3.5273,0,0,1,1.206.186"/>
 <path d="M97.9978,6.5719a6.9337,6.9337,0,0,0-2.741-.701c-.878,0-1.322.311-1.322.781,0,.497.622.621,1.402.736l.762.116c1.863.283,2.901,1.117,2.901,2.572,0,1.773-1.454,2.917-3.947,2.917a6.8555,6.8555,0,0,1-3.823-1.01l.914-1.757a5.03,5.03,0,0,0,2.927.843c1.073,0,1.587-.302,1.587-.807,0-.417-.435-.647-1.428-.79l-.7-.098c-1.987-.274-2.971-1.143-2.971-2.607,0-1.765,1.365-2.811,3.627-2.811a7.6936,7.6936,0,0,1,3.592.816Z"/>
 <path d="M58.9732,19.4086a6.6752,6.6752,0,0,0-3.521-1.056c-1.393,0-2.377.55-2.377,1.491,0,.913,1.073,1.188,2.564,1.436l.7.116c2.217.364,3.956,1.313,3.956,3.476,0,2.741-2.413,4.045-5.082,4.045a8.6385,8.6385,0,0,1-5.233-1.623l1.286-1.996a6.5577,6.5577,0,0,0,3.955,1.339c1.375,0,2.44-.541,2.44-1.498,0-.861-.906-1.18-2.635-1.456l-.789-.123c-2.191-.347-3.787-1.312-3.787-3.557,0-2.59,2.306-3.938,4.949-3.938a8.7476,8.7476,0,0,1,4.745,1.321Z"/>
 <path d="M64.5328,17.2885a1.4766,1.4766,0,1,1-1.481-1.49,1.4691,1.4691,0,0,1,1.481,1.49"/>
 <rect x="61.908" y="20.101" width="2.314" height="8.594"/>
 <path d="M74.3329,23.2222v5.473h-2.315v-4.728c0-1.242-.621-1.925-1.676-1.925a1.7626,1.7626,0,0,0-1.819,1.943v4.71h-2.315V20.1h2.253v1.011a2.88,2.88,0,0,1,2.528-1.241,3.2013,3.2013,0,0,1,3.344,3.352"/>
 <path d="M84.7078,28.6942h-2.262v-.948a3.1527,3.1527,0,0,1-2.571,1.17,4.2585,4.2585,0,0,1-4.161-4.523,4.2588,4.2588,0,0,1,4.161-4.524,3.1434,3.1434,0,0,1,2.571,1.18V20.1h2.262Zm-6.625-4.301a2.2223,2.2223,0,1,0,4.435,0,2.2223,2.2223,0,1,0-4.435,0"/>
 <path d="M89.3191,17.2885a1.4766,1.4766,0,1,1-1.482-1.49,1.4693,1.4693,0,0,1,1.482,1.49"/>
 <rect x="86.694" y="20.101" width="2.315" height="8.594"/>
</g>
<path fill="#DC1E34" d="M11.892,19.2583a6.7658,6.7658,0,1,1,4.785-11.549l1.419,1.42-1.978,1.978-1.419-1.42a3.97,3.97,0,1,0,0,5.614l1.978,1.978a6.7465,6.7465,0,0,1-4.785,1.979m0,5.128a11.8914,11.8914,0,0,1-8.409-20.3,11.89,11.89,0,0,1,16.818,0l1.42,1.419-1.979,1.978-1.419-1.42a9.095,9.095,0,1,0,0,12.862l2.595-2.595,1.978,1.977-2.595,2.596a11.817,11.817,0,0,1-8.409,3.483m15.223,2.066a6.7459,6.7459,0,0,1-4.784-1.979l-1.419-1.419,1.977-1.978,1.42,1.419a3.97,3.97,0,1,0,0-5.614l-1.978-1.978a6.767,6.767,0,1,1,4.784,11.549m.001,5.128a11.8121,11.8121,0,0,1-8.409-3.484l-1.419-1.419,1.978-1.978,1.419,1.42a9.0948,9.0948,0,1,0,0-12.861l-2.595,2.595-1.978-1.978,2.595-2.596A11.8918,11.8918,0,1,1,27.116,31.58"/>
</svg>