<?xml version="1.0" encoding="UTF-8" standalone="no"?>
<!-- Created with Inkscape (http://www.inkscape.org/) -->

<svg
   xmlns:dc="http://purl.org/dc/elements/1.1/"
   xmlns:cc="http://creativecommons.org/ns#"
   xmlns:rdf="http://www.w3.org/1999/02/22-rdf-syntax-ns#"
   xmlns:svg="http://www.w3.org/2000/svg"
   xmlns="http://www.w3.org/2000/svg"
   xmlns:sodipodi="http://sodipodi.sourceforge.net/DTD/sodipodi-0.dtd"
   xmlns:inkscape="http://www.inkscape.org/namespaces/inkscape"
   width="200.91544"
   height="124.78994"
   viewBox="0 0 53.158873 33.017337"
   version="1.1"
   id="svg10449"
   inkscape:version="0.92.0 r15299"
   sodipodi:docname="select medical.svg">
  <defs
     id="defs10443">
    <clipPath
       id="clipPath8868"
       clipPathUnits="userSpaceOnUse">
      <path
         inkscape:connector-curvature="0"
         id="path8866"
         d="M 15,15 H 1248 V 807 H 15 Z" />
    </clipPath>
  </defs>
  <sodipodi:namedview
     id="base"
     pagecolor="#ffffff"
     bordercolor="#666666"
     borderopacity="1.0"
     inkscape:pageopacity="0.0"
     inkscape:pageshadow="2"
     inkscape:zoom="1.7654513"
     inkscape:cx="112.8462"
     inkscape:cy="-28.162973"
     inkscape:document-units="mm"
     inkscape:current-layer="layer1"
     showgrid="false"
     fit-margin-top="0"
     fit-margin-left="0"
     fit-margin-right="0"
     fit-margin-bottom="0"
     units="px"
     inkscape:window-width="1280"
     inkscape:window-height="744"
     inkscape:window-x="-4"
     inkscape:window-y="-4"
     inkscape:window-maximized="1" />
  <metadata
     id="metadata10446">
    <rdf:RDF>
      <cc:Work
         rdf:about="">
        <dc:format>image/svg+xml</dc:format>
        <dc:type
           rdf:resource="http://purl.org/dc/dcmitype/StillImage" />
        <dc:title></dc:title>
      </cc:Work>
    </rdf:RDF>
  </metadata>
  <g
     inkscape:label="Layer 1"
     inkscape:groupmode="layer"
     id="layer1"
     transform="translate(13.842508,-128.28139)">
    <path
       inkscape:connector-curvature="0"
       id="path8872"
       style="fill:#006c68;fill-opacity:1;fill-rule:nonzero;stroke:none;stroke-width:0.35277778"
       d="m 1.7389047,128.87876 c -1.56986112,0.22154 -3.5881027,0 -4.2597916,1.55081 -0.4494389,-0.44238 -0.6731,-0.88653 -1.3454944,-0.66428 -1.1458222,0.37641 -2.0175361,0.66428 -2.6909888,1.77165 -0.2236611,0.2219 -1.120775,-0.22119 -1.5695083,0 -0.6727472,0.44309 -1.3447889,0.66534 -2.2419036,0.66534 0,0.88653 -0.44838,1.55046 -1.345141,1.9939 -0.224014,0.22154 0.448733,0.66428 0.224014,0.88582 -0.6731,0.44309 -0.6731,1.10808 -0.448028,1.77307 0.224014,0.44203 1.120775,0.44203 1.793522,0.44203 0.4483811,0.22225 0.2240144,0.66533 0,0.66533 -1.345494,-0.66533 -2.241903,0.44274 -2.690636,1.32962 -0.152753,0.30163 0.111831,0.70697 0.366889,1.07492 -0.294922,0.0547 -0.540103,0.15628 -0.639939,0.35383 -0.268817,0.77682 0.09349,1.28129 0.217664,1.50248 0.124531,0.2212 0.147461,0.4124 0.08502,0.59761 -0.02399,0.0727 -0.166511,0.2353 -0.166511,0.2353 l 16.2246031,0.002 v -14.26351 -0.24871 c -0.5051778,0.0854 -1.0089444,0.20849 -1.5137694,0.33302" />
    <path
       inkscape:connector-curvature="0"
       id="path8876"
       style="fill:#006c68;fill-opacity:1;fill-rule:nonzero;stroke:none;stroke-width:0.35277778"
       d="m 5.8871479,128.87876 c 1.5702139,0.22154 3.5877499,0 4.2601441,1.55081 0.449439,-0.44238 0.6731,-0.88653 1.345141,-0.66428 1.146175,0.37641 2.017889,0.66428 2.691342,1.77165 0.223661,0.2219 1.120775,-0.22119 1.569156,0 0.672747,0.44309 1.345141,0.66534 2.242255,0.66534 0,0.88653 0.448381,1.55046 1.345142,1.9939 0.224014,0.22154 -0.448734,0.66428 -0.224014,0.88582 0.6731,0.44309 0.6731,1.10808 0.448028,1.77307 -0.224014,0.44203 -1.120775,0.44203 -1.793523,0.44203 -0.448733,0.22225 -0.224013,0.66533 0,0.66533 1.345495,-0.66533 2.241903,0.44274 2.690284,1.32962 0.153105,0.30163 -0.111478,0.70697 -0.366889,1.07492 0.295275,0.0547 0.540455,0.15628 0.639939,0.35383 0.269169,0.77682 -0.09313,1.28129 -0.217311,1.50248 -0.124531,0.2212 -0.147461,0.4124 -0.08537,0.59761 0.02434,0.0727 0.166864,0.2353 0.166864,0.2353 l -16.2249545,0.002 v -14.26351 -0.24871 c 0.5055305,0.0854 1.0092972,0.20849 1.5137694,0.33302" />
    <path
       inkscape:connector-curvature="0"
       id="path8880"
       style="fill:#006c68;fill-opacity:1;fill-rule:nonzero;stroke:none;stroke-width:0.35277778"
       d="m -4.3148324,152.38569 c 0.4483805,-0.66463 1.1214805,-0.88547 1.3447889,-1.3275 0.8974666,1.99213 2.91570819,0.22013 4.484511,0.22013 0.2243666,0 0.4483805,0.2219 0.4483805,0.44274 -0.2240139,1.99425 -1.56915554,7.12117 -3.5877499,7.78615 -0.3922889,0.14217 -0.7845778,0.25647 -1.1761611,0.35702 l -0.014111,1.06574 H 3.2494285 V 144.19384 H -12.703183 c 0.284339,0.3429 0.430389,0.75353 0.430389,1.23789 0.07655,0 0.206022,0.12877 0.333728,0.25859 -0.29845,-0.0494 -0.597253,-0.0981 -0.895703,0.0497 -0.897114,0.66464 -0.897114,1.9939 -0.44838,2.87973 0.44838,1.10807 1.569155,-0.22225 2.465564,0.44309 -0.223662,0.22048 -0.448028,0.66498 -0.448028,0.88653 0.448028,0.88653 1.12148,0.88653 2.017889,1.32891 0,0.2219 0,0.44274 0.2243667,0.66393 0.6734528,0.22154 1.39065,0.34078 2.0626916,0.34078 0.8971139,0.2219 2.1974528,0.76729 2.6458333,0.10266" />
    <path
       inkscape:connector-curvature="0"
       id="path8884"
       style="fill:#5f6062;fill-opacity:1;fill-rule:nonzero;stroke:none;stroke-width:0.35277778"
       d="m 7.3957315,154.6574 c -1.2767027,0 -2.3085777,-0.44238 -2.6031472,-0.65476 -0.1802694,-0.13123 -0.19685,-0.36053 -0.19685,-0.77011 0,-0.0653 0,-0.88371 0.049389,-1.4732 0,-0.0649 0.016228,-0.29492 0.2134306,-0.29492 0.1467555,0 0.1961444,0.13088 0.2286,0.27834 0.3115027,1.45733 1.4245166,2.4892 2.5869194,2.4892 0.6872111,0 1.9483916,-0.49177 1.9483916,-1.81716 0,-1.27776 -1.1137194,-1.89935 -2.2919972,-2.43981 -1.3260916,-0.58984 -2.6193749,-1.22837 -2.6193749,-2.96404 0,-1.50565 1.1458222,-2.81587 3.2243888,-2.81587 0.9503833,0 1.9162888,0.26141 2.1455944,0.37606 0.196144,0.11465 0.196144,0.26211 0.196144,1.70286 0,0.36089 0,0.49142 -0.228952,0.49142 -0.1633365,0 -0.2293059,-0.0981 -0.3929948,-0.60607 -0.1961444,-0.63783 -0.4910666,-1.57128 -1.8503194,-1.57128 -1.3426722,0 -1.7839972,0.93345 -1.7839972,1.57128 0,1.16275 0.9489722,1.57197 2.2591889,2.11243 0.9168694,0.39335 2.6359545,1.19486 2.6359545,3.04518 0,1.81786 -1.3426712,3.34045 -3.5203684,3.34045" />
    <path
       inkscape:connector-curvature="0"
       id="path8888"
       style="fill:#5f6062;fill-opacity:1;fill-rule:nonzero;stroke:none;stroke-width:0.35277778"
       d="m 15.291568,149.39537 c 0.669219,0 1.057628,-0.34219 1.057628,-0.74718 0,-0.91864 -1.057628,-0.95003 -1.291872,-0.95003 -1.400881,0 -1.883834,1.27705 -1.883834,1.52541 0,0.1718 0.0628,0.1718 0.420511,0.1718 z m -1.915583,0.4826 c -0.264584,0 -0.403931,0.0155 -0.403931,0.82479 0,1.74378 1.151467,3.08293 2.754842,3.08293 0.700969,0 1.338791,-0.26529 1.712736,-0.62301 0.233186,-0.23318 0.249061,-0.24941 0.342547,-0.24941 0.109008,0 0.140053,0.0935 0.140053,0.14041 0,0.23353 -1.090083,1.60372 -3.06705,1.60372 -2.054931,0 -3.611739,-1.35466 -3.611739,-3.51825 0,-2.30399 1.743781,-3.79871 3.861153,-3.79871 2.350911,0 2.84868,1.72791 2.84868,2.25742 0,0.28011 -0.171097,0.28011 -0.420158,0.28011 z" />
    <path
       inkscape:connector-curvature="0"
       id="path8892"
       style="fill:#5f6062;fill-opacity:1;fill-rule:nonzero;stroke:none;stroke-width:0.35277778"
       d="m 18.840689,146.02158 c 0,-0.52776 0,-1.12571 -0.560917,-1.17863 -0.279752,-0.0353 -0.357716,-0.0353 -0.357716,-0.2286 0,-0.1584 0.04621,-0.17568 0.498475,-0.29916 0.404283,-0.10548 1.058333,-0.36935 1.338791,-0.5274 0.373239,-0.21131 0.404284,-0.2293 0.4826,-0.2293 0.171098,0 0.171098,0.19402 0.171098,0.36935 0,0.22896 -0.0628,1.31975 -0.0628,1.51307 v 7.33672 c 0,0.98495 0,1.17863 0.669925,1.28411 0.388408,0.0526 0.466372,0.1404 0.466372,0.29915 0,0.21132 -0.154869,0.21132 -0.263877,0.21132 -0.420864,0 -0.731662,-0.0709 -1.63442,-0.0709 -1.027994,0 -1.214614,0.0709 -1.541992,0.0709 -0.186266,0 -0.341841,0 -0.341841,-0.22896 0,-0.15875 0.12453,-0.22895 0.467078,-0.28151 0.669219,-0.10548 0.669219,-0.29916 0.669219,-1.26647 z" />
    <path
       inkscape:connector-curvature="0"
       id="path8896"
       style="fill:#5f6062;fill-opacity:1;fill-rule:nonzero;stroke:none;stroke-width:0.35277778"
       d="m 25.042204,149.39537 c 0.642056,0 1.016,-0.34219 1.016,-0.74718 0,-0.91864 -1.016,-0.95003 -1.240719,-0.95003 -1.344437,0 -1.807987,1.27705 -1.807987,1.52541 0,0.1718 0.05997,0.1718 0.403578,0.1718 z m -1.838678,0.4826 c -0.254,0 -0.388408,0.0155 -0.388408,0.82479 0,1.74378 1.106311,3.08293 2.645128,3.08293 0.6731,0 1.285522,-0.26529 1.64465,-0.62301 0.222955,-0.23318 0.23883,-0.24941 0.328436,-0.24941 0.104422,0 0.134055,0.0935 0.134055,0.14041 0,0.23353 -1.046339,1.60372 -2.94393,1.60372 -1.972381,0 -3.467453,-1.35466 -3.467453,-3.51825 0,-2.30399 1.673931,-3.79871 3.706636,-3.79871 2.25672,0 2.735086,1.72791 2.735086,2.25742 0,0.28011 -0.164394,0.28011 -0.40393,0.28011 z" />
    <path
       inkscape:connector-curvature="0"
       id="path8900"
       style="fill:#5f6062;fill-opacity:1;fill-rule:nonzero;stroke:none;stroke-width:0.35277778"
       d="m 32.172513,153.83193 c 0.717197,0 1.375128,-0.3115 1.653469,-0.56021 0.02963,-0.0155 0.102306,-0.0783 0.161573,-0.0783 0.05856,0 0.131586,0.0628 0.131586,0.15664 0,0.3115 -1.097845,1.30774 -2.663825,1.30774 -1.668286,0 -3.642783,-1.04351 -3.642783,-3.45651 0,-2.50684 2.164997,-3.8608 3.979686,-3.8608 0.233891,0 2.253897,0.12417 2.253897,1.02764 0,0.21731 -0.07373,1.09008 -0.439914,1.09008 -0.248356,0 -0.423686,-0.24941 -0.906639,-0.93486 -0.453672,-0.63782 -0.731661,-0.84067 -1.141589,-0.84067 -0.643467,0 -2.136422,0.77858 -2.136422,3.2071 0,1.69722 1.375833,2.94217 2.750961,2.94217" />
    <path
       inkscape:connector-curvature="0"
       id="path8904"
       style="fill:#5f6062;fill-opacity:1;fill-rule:nonzero;stroke:none;stroke-width:0.35277778"
       d="m 36.857155,152.36882 c 0,0.70062 0.09384,1.41676 0.903464,1.41676 0.232833,0 0.45085,-0.0466 0.995539,-0.38947 0.04692,-0.031 0.12453,-0.0621 0.171097,-0.0621 0.07796,0 0.124531,0.0776 0.124531,0.1397 0,0.23389 -0.995892,1.18392 -2.132542,1.18392 -0.80892,0 -1.572683,-0.52952 -1.572683,-1.69756 v -4.46793 c 0,-0.20215 -0.124178,-0.29599 -0.357364,-0.28011 -0.124531,0 -0.233892,0.0159 -0.358775,0.0159 -0.07761,0 -0.264231,0 -0.264231,-0.17109 0,-0.15593 0.171097,-0.24942 0.233186,-0.28046 l 0.420864,-0.21802 c 0.374297,-0.18697 0.855839,-0.60713 1.369836,-1.40123 0.06209,-0.078 0.155575,-0.18662 0.264584,-0.18662 0.04621,0 0.202494,0 0.202494,0.24906 v 1.05833 c 0,0.29598 0.06209,0.35807 0.389467,0.35807 h 0.88653 c 0.21837,0 0.327731,-0.031 0.467078,-0.031 0.124883,0 0.233892,0.031 0.202847,0.3115 -0.03034,0.27975 -0.07796,0.32667 -0.279753,0.32667 -0.264583,0 -0.623711,-0.031 -1.370541,-0.031 -0.264936,0 -0.295628,0.031 -0.295628,0.35807 z" />
    <path
       inkscape:connector-curvature="0"
       id="path8908"
       style="fill:#5f6062;fill-opacity:1;fill-rule:nonzero;stroke:none;stroke-width:0.35277778"
       d="m 11.307649,160.61052 -0.273403,-0.0247 c -0.286103,-0.0289 -0.292805,-0.14182 -0.313266,-0.47696 l -0.0032,-0.0543 c -0.04904,-0.83008 -0.06421,-1.82386 -0.07655,-2.62255 -0.0025,-0.22048 -0.0056,-0.42192 -0.0095,-0.59478 -0.0074,-0.48366 0.03034,-0.58244 0.479425,-0.62971 l 0.18415,-0.0169 0.01729,-0.0123 c 0.0568,-0.0434 0.0575,-0.13088 0.0568,-0.15663 -0.0032,-0.0677 -0.02822,-0.12171 -0.06914,-0.14782 l -0.02046,-0.0127 -0.02364,0.001 c -0.227894,0.0138 -0.485069,0.0222 -0.689327,0.0222 -0.155575,0 -0.316089,0 -0.5778499,-0.0222 l -0.075847,-0.006 -0.00353,0.0759 c -0.014464,0.32138 -0.2261306,0.7172 -0.574675,1.37407 l -0.7997472,1.54411 c -0.1559278,0.30198 -0.3157361,0.61348 -0.4836583,0.89958 -0.1389945,-0.24694 -0.2688167,-0.50059 -0.4053417,-0.76658 l -0.9652,-1.85985 c -0.1869822,-0.36451 -0.4300461,-0.88415 -0.3975905,-1.18048 l 0.00953,-0.0878 -0.088194,0.007 c -0.2543528,0.0222 -0.4596695,0.0222 -0.6406445,0.0222 -0.1820333,0 -0.3644194,-0.007 -0.6113638,-0.0222 l -0.018344,-0.001 -0.016933,0.008 c -0.046214,0.0222 -0.079728,0.0677 -0.091722,0.127 -0.013758,0.0646 7.055e-4,0.13017 0.036689,0.1718 l 0.018697,0.0208 0.1495777,0.0176 c 0.4282723,0.0667 0.4751917,0.12453 0.4607278,0.56232 -0.013758,0.36266 -0.043392,0.98672 -0.085725,1.64889 -0.046214,0.72813 -0.085725,1.14088 -0.1319389,1.62701 -0.04445,0.49883 -0.1397,0.50941 -0.4201583,0.54151 l -0.1922639,0.0243 -0.015169,0.0127 c -0.035631,0.0282 -0.055739,0.0751 -0.055739,0.13124 0,0.0677 0.027517,0.13299 0.070908,0.16792 l 0.021872,0.0173 0.02787,-0.002 c 0.254,-0.0141 0.5344583,-0.0222 0.7909277,-0.0222 0.3058584,0 0.60325,0.008 0.860425,0.0222 l 0.016581,7.1e-4 0.015169,-0.006 c 0.046919,-0.0194 0.079022,-0.0656 0.087489,-0.12665 0.011289,-0.0716 -0.013053,-0.14358 -0.061383,-0.18238 l -0.017639,-0.0148 -0.3192639,-0.0236 c -0.2243667,-0.0162 -0.2829278,-0.0445 -0.2829278,-0.61631 0,-0.60325 0.029281,-1.24389 0.054681,-1.73566 0.01905,-0.35172 0.0381,-0.70344 0.061383,-1.07174 0.062795,0.13264 0.1248833,0.26917 0.1855611,0.40287 0.069497,0.15134 0.1382889,0.30198 0.2074334,0.44521 l 0.7948083,1.61713 c 0.1901472,0.381 0.4769555,0.95567 0.5884333,1.2834 l 0.00917,0.0187 c 0.033514,0.048 0.09772,0.061 0.1294695,0.061 0.078669,0 0.1185333,-0.0335 0.1456972,-0.0751 0.1305277,-0.31785 0.4593166,-0.97755 0.8385527,-1.68134 l 0.6928556,-1.2954 c 0.06738,-0.12347 0.1591027,-0.30198 0.24765,-0.47343 0.048683,-0.0935 0.097367,-0.18873 0.1397,-0.27058 l 0.022225,2.83457 c 0,0.47625 0,0.52599 -0.3164417,0.55669 l -0.2515305,0.025 -0.017992,0.0169 c -0.037394,0.036 -0.05715,0.0935 -0.052211,0.15381 0.00529,0.0617 0.033161,0.1143 0.077258,0.14428 l 0.019756,0.0134 0.024694,-0.001 c 0.2977444,-0.0138 0.6487586,-0.0222 0.9397996,-0.0222 0.287514,0 0.604661,0.008 0.915811,0.0222 l 0.02011,0.001 0.01764,-0.01 c 0.0448,-0.024 0.07479,-0.0727 0.0822,-0.133 0.0092,-0.066 -0.01094,-0.13052 -0.0508,-0.16862 z" />
    <path
       inkscape:connector-curvature="0"
       id="path8912"
       style="fill:#5f6062;fill-opacity:1;fill-rule:nonzero;stroke:none;stroke-width:0.35277778"
       d="m 15.862045,159.72477 -0.02328,0.0261 c -0.220839,0.42086 -0.419806,0.63358 -0.519642,0.6865 -0.166864,0.0787 -0.401108,0.10336 -0.966258,0.10336 -0.645584,0 -0.811389,-0.0723 -0.891823,-0.14816 -0.105833,-0.10725 -0.127705,-0.35419 -0.127705,-0.71896 v -1.04387 c 0,-0.12665 0,-0.12665 0.184855,-0.12665 h 0.452614 c 0.271992,0 0.475192,0.006 0.583495,0.0346 0.104069,0.0247 0.153811,0.0861 0.187325,0.22719 l 0.06985,0.28963 0.01587,0.031 c 0.04516,0.0512 0.123119,0.0568 0.154869,0.0568 0.07479,0 0.137231,-0.0286 0.1651,-0.0755 l 0.01058,-0.0169 v -0.0205 c 0,-0.072 -0.0056,-0.16793 -0.0127,-0.27588 -0.0092,-0.13441 -0.01835,-0.28751 -0.01835,-0.43462 0,-0.15487 0.0092,-0.31256 0.01799,-0.45226 0.0074,-0.11324 0.01305,-0.21519 0.01305,-0.29563 v -0.0198 l -0.01058,-0.018 c -0.02787,-0.0462 -0.09031,-0.0744 -0.1651,-0.0744 -0.03104,0 -0.109714,0.005 -0.154869,0.0564 l -0.01199,0.0148 -0.06597,0.32173 c -0.03669,0.17357 -0.08149,0.18698 -0.138642,0.20497 -0.03845,0.0127 -0.1778,0.0416 -0.639939,0.0416 h -0.452614 c -0.07726,0 -0.158044,0 -0.172508,-0.0123 -0.0074,-0.009 -0.01235,-0.0501 -0.01235,-0.12277 V 156.483 c 0,-0.22367 0,-0.22367 0.161925,-0.22367 h 0.560917 c 0.329847,0 0.582083,0.007 0.739069,0.043 0.348897,0.0825 0.419806,0.29316 0.525286,0.61207 l 0.01517,0.0427 0.01376,0.0254 c 0.02963,0.0332 0.07867,0.0519 0.136172,0.0519 0.05645,0 0.135467,-0.0194 0.173214,-0.073 l 0.01552,-0.0219 -0.01129,-0.12171 c -0.04092,-0.42933 -0.07796,-0.7941 -0.119944,-0.9077 l -0.02223,-0.0607 -0.06315,0.0148 c -0.08502,0.0205 -0.568678,0.0205 -1.03505,0.0205 h -1.464734 c -0.296686,0 -0.553508,-0.006 -0.916516,-0.0226 l -0.01799,-7.1e-4 -0.01658,0.008 c -0.05645,0.0272 -0.08114,0.0998 -0.08467,0.15875 -0.0042,0.0706 0.01834,0.12594 0.06209,0.15381 l 0.154869,0.0254 c 0.392289,0.0437 0.410634,0.084 0.410634,0.86113 v 2.66453 c 0,0.78811 -0.04692,0.82198 -0.416631,0.85267 l -0.282575,0.025 -0.0187,0.0173 c -0.04057,0.0388 -0.05856,0.10372 -0.04798,0.17427 0.01023,0.0617 0.04022,0.10831 0.08184,0.12912 l 0.01693,0.007 0.01729,-7.1e-4 c 0.426861,-0.0138 0.7112,-0.0219 1.05798,-0.0219 h 0.701323 c 0.68968,0 1.391708,0.007 2.086327,0.0219 l 0.04551,0.001 0.02081,-0.0402 c 0.104422,-0.20672 0.301625,-0.78422 0.357363,-1.04775 l 0.0042,-0.0229 -0.0099,-0.0226 c -0.05574,-0.12101 -0.220839,-0.13512 -0.301625,-0.0808" />
    <path
       inkscape:connector-curvature="0"
       id="path8916"
       style="fill:#5f6062;fill-opacity:1;fill-rule:nonzero;stroke:none;stroke-width:0.35277778"
       d="m 20.857449,158.35603 c 0,1.44709 -0.751769,2.24437 -2.116667,2.24437 -0.493888,0 -0.754944,-0.0797 -0.900641,-0.27411 -0.119239,-0.16051 -0.141111,-0.38311 -0.141111,-0.76376 v -2.73191 c 0,-0.30445 0.01587,-0.47378 0.04763,-0.50306 0.03316,-0.0236 0.237066,-0.0903 0.728838,-0.0903 2.210506,0 2.381956,1.62136 2.381956,2.11878 m -0.706261,-2.2673 c -0.4572,-0.16052 -0.960261,-0.22684 -1.738136,-0.22684 -0.609953,0 -1.232958,0.0194 -1.959681,0.0596 l -0.02187,0.005 c -0.05856,0.0222 -0.09666,0.0748 -0.102305,0.14076 -0.0064,0.0713 0.02752,0.14146 0.08325,0.17462 l 0.198614,0.0321 c 0.260703,0.0353 0.303742,0.12558 0.303742,0.64558 v 2.81375 c 0,0.77012 -0.01517,0.80187 -0.403578,0.85302 l -0.2032,0.0247 -0.01729,0.0166 c -0.04092,0.0388 -0.05856,0.10407 -0.04833,0.17427 0.0095,0.0617 0.03986,0.10901 0.0822,0.12947 l 0.01623,0.008 0.01799,-7.1e-4 c 0.392642,-0.0159 0.664986,-0.0222 0.97155,-0.0222 0.113242,0 0.268111,0.0106 0.448028,0.0229 0.249414,0.0169 0.532694,0.0363 0.821972,0.0363 0.487539,0 1.191683,-0.0628 1.779411,-0.363 0.891117,-0.46108 1.402644,-1.28905 1.402644,-2.27119 0,-1.05868 -0.609247,-1.90112 -1.631244,-2.25248" />
    <path
       inkscape:connector-curvature="0"
       id="path8920"
       style="fill:#5f6062;fill-opacity:1;fill-rule:nonzero;stroke:none;stroke-width:0.35277778"
       d="m 23.651413,156.20768 0.194381,-0.0152 0.03316,-0.0109 c 0.0441,-0.0275 0.06597,-0.0832 0.06174,-0.15275 -0.0032,-0.0593 -0.02752,-0.13194 -0.08467,-0.15945 l -0.01658,-0.008 h -0.01799 c -0.381,0.0152 -0.6477,0.0233 -0.963436,0.0233 -0.329142,0 -0.5969,-0.008 -0.978606,-0.0233 h -0.01764 l -0.01658,0.008 c -0.0568,0.0275 -0.08185,0.10019 -0.08431,0.1598 -0.0046,0.0692 0.01834,0.12559 0.06174,0.1524 l 0.227189,0.0261 c 0.385939,0.031 0.408164,0.0801 0.408164,0.87489 v 2.63595 c 0,0.79093 -0.01446,0.82303 -0.410281,0.86748 l -0.218369,0.0247 -0.01835,0.0169 c -0.04057,0.0388 -0.05856,0.10407 -0.04833,0.17392 0.01023,0.0624 0.04022,0.10936 0.08255,0.12982 l 0.01658,0.008 0.01764,-7.1e-4 c 0.376414,-0.0148 0.64382,-0.0222 0.978606,-0.0222 0.32138,0 0.596194,0.008 0.963436,0.0222 l 0.01799,7.1e-4 0.01658,-0.008 c 0.05715,-0.0275 0.08149,-0.10054 0.08467,-0.15945 0.0042,-0.0699 -0.01764,-0.12559 -0.06174,-0.15311 l -0.225073,-0.0328 c -0.395463,-0.0445 -0.410986,-0.0765 -0.410986,-0.86748 v -2.63595 c 0,-0.79481 0.02328,-0.84385 0.408517,-0.87489" />
    <path
       inkscape:connector-curvature="0"
       id="path8924"
       style="fill:#5f6062;fill-opacity:1;fill-rule:nonzero;stroke:none;stroke-width:0.35277778"
       d="m 29.01166,159.58041 c -0.03281,0 -0.08079,0.006 -0.121356,0.0339 l -0.01764,0.0113 -0.0088,0.0205 c -0.154869,0.37853 -0.564444,1.01388 -1.561394,1.01388 -1.340909,0 -2.241903,-0.94086 -2.241903,-2.34103 0,-1.60549 1.102431,-2.17805 2.133247,-2.17805 0.866775,0 1.367014,0.33584 1.526822,1.02482 l 0.0046,0.025 0.02011,0.0155 c 0.08255,0.067 0.253647,0.0526 0.314325,-0.0282 l 0.01799,-0.0243 -0.0042,-0.0296 c -0.06068,-0.44062 -0.100542,-0.90488 -0.108303,-1.08091 l -0.0032,-0.078 -0.07726,0.008 c -0.05433,0.006 -0.09454,-0.004 -0.192264,-0.0279 -0.390878,-0.1023 -0.991658,-0.17992 -1.397353,-0.17992 -0.837141,0 -1.580444,0.22296 -2.147005,0.64453 -0.642761,0.47307 -1.011414,1.20967 -1.011414,2.01965 0,0.87172 0.404283,1.61643 1.140178,2.09762 0.535516,0.34113 1.182511,0.50694 1.97873,0.50694 0.499534,0 1.074209,-0.11148 1.255184,-0.17463 0.08361,-0.0286 0.173213,-0.0571 0.261055,-0.0709 l 0.02681,-0.004 0.01729,-0.0212 c 0.131939,-0.1584 0.334786,-0.66181 0.38982,-1.05058 l 0.0042,-0.0247 -0.01411,-0.0226 c -0.03739,-0.0632 -0.119592,-0.0854 -0.18415,-0.0854" />
    <path
       inkscape:connector-curvature="0"
       id="path8928"
       style="fill:#5f6062;fill-opacity:1;fill-rule:nonzero;stroke:none;stroke-width:0.35277778"
       d="m 32.343399,158.55894 c -0.0092,0.006 -0.04057,0.013 -0.141111,0.013 h -0.959203 c -0.03528,0 -0.0889,0 -0.12065,-0.004 0.0067,-0.0233 0.0194,-0.0582 0.02505,-0.0748 l 0.490361,-1.28799 c 0.04904,-0.12347 0.09243,-0.22966 0.125589,-0.30515 0.03775,0.0945 0.08043,0.21837 0.120298,0.33231 l 0.421216,1.20686 c 0.0247,0.0706 0.03493,0.11324 0.03845,0.11994 m 1.877131,2.02706 c -0.287514,-0.0325 -0.37712,-0.10336 -0.602192,-0.7373 L 32.512732,156.767 c -0.105127,-0.29175 -0.214136,-0.59408 -0.303741,-0.88265 -0.02258,-0.0741 -0.09208,-0.11818 -0.185914,-0.11818 h -0.03316 l -0.02152,0.024 c -0.08678,0.0974 -0.206728,0.21484 -0.370416,0.26035 l -0.06491,0.0173 0.01235,0.0667 c 0.02011,0.0977 -0.02328,0.22789 -0.127353,0.48436 l -0.795161,1.99884 c -0.226836,0.57432 -0.403931,0.98848 -0.5334,1.29046 -0.05891,0.13759 -0.109361,0.25541 -0.152047,0.36054 -0.107598,0.26106 -0.273403,0.30692 -0.407106,0.3175 l -0.278342,0.0236 -0.01693,0.0138 c -0.03916,0.03 -0.05927,0.084 -0.05609,0.1464 0.0032,0.0543 0.02469,0.12347 0.07691,0.15734 l 0.0194,0.012 0.18415,-0.007 c 0.180975,-0.007 0.389114,-0.0159 0.582789,-0.0159 l 0.256822,0.004 c 0.23248,0.004 0.400403,0.007 0.549275,0.018 l 0.01799,0.001 0.01588,-0.007 c 0.05503,-0.0226 0.09102,-0.0765 0.09842,-0.14358 0.006,-0.0688 -0.02152,-0.13547 -0.0702,-0.16828 l -0.292453,-0.0346 c -0.15875,-0.0131 -0.15875,-0.0392 -0.15875,-0.0762 0,-0.042 0.02117,-0.17498 0.167217,-0.5902 l 0.271991,-0.77752 c 0.04128,-0.11571 0.05186,-0.12841 0.228247,-0.12841 h 1.176867 c 0.204611,0 0.206728,0.005 0.25012,0.13582 l 0.343252,1.00718 c 0.04516,0.12912 0.09701,0.28716 0.09701,0.36795 -0.0035,0.009 -0.04974,0.0469 -0.206728,0.0614 l -0.226483,0.0222 -0.03316,0.0123 c -0.04692,0.0314 -0.07338,0.0924 -0.06773,0.16016 0.0049,0.0681 0.04022,0.12559 0.09313,0.15064 l 0.01517,0.008 0.165453,-0.006 c 0.201084,-0.007 0.450497,-0.0166 0.746125,-0.0166 0.329142,0 0.602897,0.006 0.939095,0.0222 l 0.02752,0.001 0.02081,-0.0159 c 0.04904,-0.0377 0.06526,-0.11218 0.06385,-0.16475 -0.0021,-0.0614 -0.0254,-0.11077 -0.06738,-0.13829 z" />
    <path
       inkscape:connector-curvature="0"
       id="path8932"
       style="fill:#5f6062;fill-opacity:1;fill-rule:nonzero;stroke:none;stroke-width:0.35277778"
       d="m 38.763002,159.69514 c -0.03246,0 -0.07726,0.006 -0.110067,0.0332 l -0.02222,0.0289 c -0.16898,0.4071 -0.365477,0.63041 -0.481541,0.69568 -0.111831,0.0596 -0.276931,0.0878 -0.917223,0.0878 -0.563386,0 -0.716844,-0.0723 -0.797983,-0.14817 -0.12065,-0.12135 -0.141817,-0.30198 -0.141817,-0.74859 v -2.57563 c 0,-0.78952 0.01905,-0.82974 0.408517,-0.86078 l 0.186972,-0.0152 0.03281,-0.0109 c 0.04339,-0.0268 0.06597,-0.0829 0.06209,-0.1524 -0.0035,-0.06 -0.02752,-0.13229 -0.08467,-0.1598 l -0.01623,-0.007 -0.01834,3.5e-4 c -0.381,0.0148 -0.646289,0.0222 -0.955675,0.0222 -0.300567,0 -0.554567,-0.007 -1.010709,-0.0222 l -0.01799,-3.5e-4 -0.01587,0.007 c -0.05715,0.0275 -0.08079,0.10054 -0.08431,0.1598 -0.0039,0.0702 0.01834,0.12559 0.06174,0.1524 l 0.227894,0.0261 c 0.4191,0.0317 0.439562,0.0716 0.439562,0.86078 v 2.66488 c 0,0.78246 -0.01517,0.81421 -0.401814,0.85266 l -0.258939,0.0247 -0.01764,0.0173 c -0.04163,0.0388 -0.05891,0.10372 -0.04798,0.17428 0.0092,0.0614 0.03881,0.1083 0.08149,0.12947 l 0.01587,0.007 0.01799,-7e-4 c 0.442737,-0.0148 0.686859,-0.0222 1.010709,-0.0222 h 0.717197 c 0.854428,0 1.561394,0.008 1.937808,0.0222 l 0.0448,0.002 0.02117,-0.0399 c 0.110419,-0.20108 0.336197,-0.96661 0.336197,-1.07103 0,-0.0868 -0.10407,-0.13406 -0.201789,-0.13406" />
    <path
       inkscape:connector-curvature="0"
       id="path8936"
       style="fill:#5f6062;fill-opacity:1;fill-rule:nonzero;stroke:none;stroke-width:0.35277778"
       d="m 20.671429,137.36645 h 0.04127 c 0.123119,0 0.212372,-0.0219 0.268817,-0.0667 0.05574,-0.0441 0.08396,-0.0995 0.08396,-0.16546 0,-0.0691 -0.02611,-0.12664 -0.07796,-0.17356 -0.05221,-0.0466 -0.118533,-0.0706 -0.200378,-0.0706 -0.03493,0 -0.07303,0.007 -0.115711,0.0208 z m -0.328083,-0.53234 h 0.534105 c 0.134056,0 0.235656,0.0279 0.305859,0.0836 0.0702,0.0561 0.10548,0.12347 0.10548,0.20249 0,0.0642 -0.02399,0.12136 -0.07126,0.17039 -0.04798,0.0487 -0.126294,0.0861 -0.236008,0.11254 l 0.289277,0.37994 c 0.03493,0.0455 0.06668,0.0762 0.09384,0.0931 0.01764,0.0106 0.04198,0.0169 0.07338,0.0194 v 0.042 h -0.254705 l -0.406753,-0.51682 h -0.105128 v 0.39405 c 0.0056,0.0282 0.0187,0.0483 0.03916,0.0614 0.02081,0.0127 0.06279,0.0194 0.124178,0.0194 v 0.042 h -0.508 v -0.042 c 0.04621,0 0.07867,-0.006 0.09737,-0.0166 0.01905,-0.0113 0.03281,-0.0279 0.04127,-0.0497 0.0035,-0.0116 0.0053,-0.0476 0.0053,-0.10971 v -0.66745 c 0,-0.0625 -0.0011,-0.0995 -0.0039,-0.11078 -0.0071,-0.0194 -0.0187,-0.0346 -0.03528,-0.0448 -0.01729,-0.0109 -0.04657,-0.0162 -0.08819,-0.0162 z m 0.542219,-0.27058 c -0.14993,0 -0.296333,0.0353 -0.439561,0.10654 -0.143228,0.0716 -0.254706,0.17392 -0.334786,0.30621 -0.08008,0.13264 -0.12065,0.27058 -0.12065,0.41381 0,0.14322 0.03951,0.2801 0.118533,0.41098 0.07867,0.13124 0.189442,0.23354 0.331259,0.30692 0.142169,0.0734 0.290336,0.10971 0.445205,0.10971 0.155222,0 0.304095,-0.0363 0.446617,-0.10971 0.142522,-0.0734 0.253294,-0.17568 0.331964,-0.30692 0.07867,-0.13088 0.11818,-0.26776 0.11818,-0.41098 0,-0.14323 -0.04022,-0.28117 -0.120297,-0.41381 -0.08043,-0.13229 -0.191558,-0.2346 -0.334786,-0.30621 -0.143228,-0.0713 -0.289983,-0.10654 -0.441678,-0.10654 m 0,-0.0794 c 0.165453,0 0.326672,0.0388 0.483658,0.11713 0.155928,0.078 0.2794,0.18944 0.367242,0.33478 0.0882,0.14499 0.131939,0.29704 0.131939,0.45403 0,0.15733 -0.04374,0.30727 -0.130528,0.45155 -0.08678,0.14429 -0.207433,0.25577 -0.363714,0.33585 -0.155575,0.0794 -0.318558,0.11959 -0.488597,0.11959 -0.169333,0 -0.331964,-0.0402 -0.487539,-0.11959 -0.155928,-0.0801 -0.27693,-0.19156 -0.363361,-0.33585 -0.08678,-0.14428 -0.130175,-0.29422 -0.130175,-0.45155 0,-0.15699 0.0441,-0.30904 0.132292,-0.45403 0.08819,-0.14534 0.210608,-0.25682 0.367241,-0.33478 0.157339,-0.0783 0.317853,-0.11713 0.481542,-0.11713" />
  </g>
</svg>
